<svg xmlns="http://www.w3.org/2000/svg" xmlns:xlink="http://www.w3.org/1999/xlink" width="287" height="59" viewBox="0 0 287 59">
  <defs>
    <clipPath id="clip-path">
      <rect id="Rectangle_6" data-name="Rectangle 6" width="287" height="59" transform="translate(0.137 0.748)" fill="#fff" stroke="#707070" stroke-width="1"/>
    </clipPath>
  </defs>
  <g id="logo" transform="translate(-0.137 -0.748)" clip-path="url(#clip-path)">
    <g id="故宮" transform="translate(3.319 0.066)">
      <g id="Group_14" data-name="Group 14" transform="translate(76.477 8.063)">
        <g id="Group_12" data-name="Group 12" transform="translate(0.388)">
          <g id="Group_5" data-name="Group 5" transform="translate(0 1.875)">
            <path id="Path_4" data-name="Path 4" d="M82.23,13.608a5.032,5.032,0,0,0-.991-1.045.409.409,0,0,0-.268-.107,3.091,3.091,0,0,0-1.339-.4h-.857c-.429,0-.161.482-.161.482a3.408,3.408,0,0,0,.67.8c.054,0,.107.054.161.107a4.516,4.516,0,0,0,.616,1.071,2.865,2.865,0,0,0,.83.589,3.946,3.946,0,0,0,.75.214c.643.161.268-.429.375-.8A1.6,1.6,0,0,0,82.23,13.608Z" transform="translate(-67.243 -9.75)" fill="#231815"/>
            <path id="Path_5" data-name="Path 5" d="M89.506,11.576c-.375-.161-.429-.429-.7-.643s-.536-.054-.8-.321a2.027,2.027,0,0,0-.857-.482c-.161,0-.536.107-1.179.188a16.745,16.745,0,0,1-2.679.161h-.482a14.071,14.071,0,0,0-1.5.08,3.977,3.977,0,0,1-.857.08.68.68,0,0,0-.321.054,10.854,10.854,0,0,1-1.125.134c-.911.134-1.929.295-1.929.295a1.712,1.712,0,0,0-.375.054c-.214,0-.536.054-.857.08a13.847,13.847,0,0,0-2.25.375c-.964.241-2.411.375-2.947.536-.482.107-.536.429-.536.429l-.8-.08c-.321,0-.161.214-.161.536a5.561,5.561,0,0,0,.509,1.607,20.727,20.727,0,0,1,.482,3.429c.027.964.054,2.679-.027,4.045-.08,1.393-.08,4.9-.08,5.009a7.171,7.171,0,0,0-.134,1.179c.054.482.027,1.447.027,2.143a6.1,6.1,0,0,0,.161,2.25c.295.911.884,1.447,1.205,1.42.321-.107.348-.857.348-.857a10.706,10.706,0,0,0,1.607.188,11.122,11.122,0,0,0,1.5-.134,9.892,9.892,0,0,0,1.607-.4c.214-.054.482-.107.7-.161.375-.054.964-.134,1.607-.188a5.306,5.306,0,0,1,1.125-.08c.375-.054.8-.08,1.179-.134.161,0,.321-.054.429-.054.214,0,.643-.054,1.071-.08,1.018-.027,2.25-.134,2.732-.107a3.125,3.125,0,0,0,1.607-.509c.268-.161.107-.375-.455-.8a2.233,2.233,0,0,0-1.768-.134c-.589.107-1.447.188-2.089.295a.187.187,0,0,0-.107.054,3.773,3.773,0,0,1-1.125.027,1.739,1.739,0,0,1,.214-.7c.161-.429.616-1.045,1.045-2.063a8.693,8.693,0,0,1,.884-1.58,11.354,11.354,0,0,0,1.607,1.9,13.464,13.464,0,0,1,1.9,1.205.5.5,0,0,1,.268.482,4.226,4.226,0,0,0,.08,1.179c.054.429,0,.643-.107.75a.839.839,0,0,0-.214.536c-.054.321-.107.7.295.75.429.107.723.857,1.152,1.152.429.321.536,0,.723-1.152a23.48,23.48,0,0,0,.107-3.509,7.868,7.868,0,0,1,.027-2.143c.107-.375-.08-.75.027-1.125.054-.429-.134-1.339-.134-1.982-.054-.643.027-1.232-.027-1.446-.054-.268.054-.375.027-.857-.054-.482.295-.964.134-1.286a5.126,5.126,0,0,1-.027-1.822c.107-.536.08-.857.134-1.018a2.522,2.522,0,0,0,.027-.857,3.608,3.608,0,0,1-.027-.911v-.7a7.738,7.738,0,0,0-.027-1.554,5.046,5.046,0,0,1,.188-1.447s-.054-.536.161-.75C89.988,11.951,89.881,11.79,89.506,11.576ZM81.845,25.72s-.4,1.393-.777,2.384c-.161.375-.268.643-.375.857a11.92,11.92,0,0,0-.563,1.205,5.685,5.685,0,0,0-.188.964l-.107.054-.107.054s-.429.054-1.018.08c-.75.08-1.714.188-2.3.214a21.193,21.193,0,0,0-2.572.268c-.589.107-.8,0-1.179.295-.375.321-.536.375-.75.241-.161-.161-.054-.268,0-.482a3.844,3.844,0,0,0,.08-.8c-.054-.429-.134-.911-.134-.911a3.013,3.013,0,0,1,.991.563,1.958,1.958,0,0,0,1.5.241l1.232-.616a6.482,6.482,0,0,0,.857-.67c.321-.375.7-.67.964-.938a14.054,14.054,0,0,1,1.339-.991c.107-.054.214-.161.321-.214a4.45,4.45,0,0,0,.8-.509,2.528,2.528,0,0,1,.75-.4.807.807,0,0,0,.429-.214.853.853,0,0,0,.161-.7.3.3,0,0,0-.161-.268A1.338,1.338,0,0,0,79.97,25.4c-.054,0-.107,0-.107.054-.429.214-.857.884-1.125.991a.052.052,0,0,1-.054.054,16.452,16.452,0,0,0-2.089,1.232c-.054,0-.107.054-.161.054a14.878,14.878,0,0,1-1.554.938,6.174,6.174,0,0,1-1.607.723,4.554,4.554,0,0,1-1.125.134c-.429,0-.429-.268-.429-.268s-.027-2.143-.054-2.839a7.64,7.64,0,0,0-.027-.964c0-.268.054-.536.054-.7a5.638,5.638,0,0,0-.08-1.447,1.594,1.594,0,0,1,.027-.616c.107-.214-.027-.295-.027-.616a3.248,3.248,0,0,0,.027-.75,5.044,5.044,0,0,1,.027-1.286c.054-.375.08-.911.08-.911s.027-1.179.027-2.089a8.964,8.964,0,0,0,.134-2.143,9.4,9.4,0,0,0-.4-1.179,1.326,1.326,0,0,0-.375-.482.335.335,0,0,1,.321-.268,4.864,4.864,0,0,0,1.607.134,5.7,5.7,0,0,1,1.232-.134c.321-.107,1.286-.188,1.5-.241s.054.107.321.321a1.541,1.541,0,0,1,.563.75,2,2,0,0,1,.214.589,1.3,1.3,0,0,0,.268.536,3.99,3.99,0,0,1,.616.964c.107.321.107.482-.268.7a7.941,7.941,0,0,1-.857.241c-.643.214-1.447.4-1.822.563a2.933,2.933,0,0,1-1.5.08,4.539,4.539,0,0,1-.857-.08,4.488,4.488,0,0,1-.536.107,4.18,4.18,0,0,0,.777,1.018,7.1,7.1,0,0,0,1.1.67c.268-.054.214,0,.214,0a4.215,4.215,0,0,1,.8,2.143,10.622,10.622,0,0,1-.643,3.241c-.268.482-.268.589-.75.563-.536,0-.536-.214-.75-.054s-.375.482-.348,1.125c.054.643.375.429.509.643a1.28,1.28,0,0,0,.7.375c.214.054.375.161,1.018-.188.268-.214,1.071-.723,1.9-1.366a21.043,21.043,0,0,0,1.9-1.58l.429-.429c.429-.375.8-.723,1.152-1.045.214-.268.429-.429.482-.536a1.348,1.348,0,0,0,.107-.321s.321.589.563,1.018a.74.74,0,0,0,.161.214,2.768,2.768,0,0,1,.67,1.5A2.269,2.269,0,0,1,81.845,25.72Zm-6.081-6.081c-.054-.107-.429-.536-.107-.589.214-.054.589-.268.964-.4a.2.2,0,0,0,.161-.054,7.643,7.643,0,0,1,.857-.241,5.248,5.248,0,0,1,.857-.4l.214.429a1.326,1.326,0,0,1,.214.321c.161.321.455.75.563,1.018.268.429.455.8.4.964,0,.161-.214.054-.375,0-.054-.054-.375-.107-.643-.214a3.69,3.69,0,0,1-.429-.161c-.268-.107-.482-.107-.429.054,0,.214.563.911.616,1.339,0,.429.134.911.027,1.125-.054.214-.536.321-.911.616-.429.321-.8.455-.911.67a1.667,1.667,0,0,1-.321.214,3.185,3.185,0,0,1-.375.161s-.214.214-.214.107a2.65,2.65,0,0,1,.563-1.259c0-.054,0-.054.054-.054.214-.321.161-.482.241-1.071.107-.589.214-.857.295-1.179a1.377,1.377,0,0,0-.134-.911.453.453,0,0,0-.321-.107c-.321-.054-.75,0-.75-.107Zm11.6,8.759c-.214,0-.991-.884-1.527-1.366-.536-.536-.67-.7-.67-.7a7.29,7.29,0,0,0-.884-1.071c-.429-.482-.375-.643-.375-.643a6.031,6.031,0,0,0,.67-1.9c.134-.911.348-1.018.348-1.5a.85.85,0,0,0-.241-.7,7.748,7.748,0,0,0-1.259-.723,2.969,2.969,0,0,0-.7-.268,1.5,1.5,0,0,0-.321-.054s-.107.054,0,.375a7.9,7.9,0,0,1,.241,1.607c0,.7.08,1.446-.134,1.339a20.174,20.174,0,0,1-1.125-2.2l-.161-.321A13.4,13.4,0,0,1,80.613,19c-.214-.321-.054-.482-.188-.75-.161-.268-.429-.536-.214-.643.268-.107.536-.054.75-.134a.828.828,0,0,0,.321-.161c.321-.161.7-.4.75-.616a1.129,1.129,0,0,0-.295-1.071,1.077,1.077,0,0,0-.429-.214,1.044,1.044,0,0,0-.429.054c-.375.054-.536-.161-.75.134v.054a.643.643,0,0,1-.643.214,10.6,10.6,0,0,1-.455-1.071c-.107-.268-.214-.536-.268-.7a3.753,3.753,0,0,0-.616-1.232s-.321-.268.107-.429a3.224,3.224,0,0,1,.8-.241,8.432,8.432,0,0,1,1.125-.241c.214-.054.375-.107.536-.161.214,0,.429-.054.643-.054.589-.107,1.179-.134,1.5-.241h.054a9.274,9.274,0,0,1,1.018-.08,10.519,10.519,0,0,1,1.393-.027c.536,0,.589.161,1.071.348.482.107.589.054.643.482.107.429.08,1.179.241,1.714a5.388,5.388,0,0,1,.188,1.339c.054.482-.027,1.125.027,1.822s.161,3.214.08,4.206c-.08,1.018-.054,3-.08,4.045.027,1.071-.188,1.018-.134,1.714.054.643.054.7.08.911C87.417,28.131,87.524,28.4,87.363,28.4Z" transform="translate(-69.108 -10.13)" fill="#231815"/>
          </g>
          <g id="Group_6" data-name="Group 6" transform="translate(26.962 4.152)">
            <path id="Path_6" data-name="Path 6" d="M96.879,20.12a6.018,6.018,0,0,0,1.714.67,2.934,2.934,0,0,0,.723-.107.762.762,0,0,0,.321-.107c.509-.107,1.5-.188,1.768-.241a6.428,6.428,0,0,0,1.018-.268,2.474,2.474,0,0,1,.589-.107,8.495,8.495,0,0,0,.884-.107c.723-.107,2.839-.723,3.322-.777.509-.054.509-.054.723-.375.161-.375.054-.723-.509-1.339-.616-.67-1.232-.214-1.607-.161a13.74,13.74,0,0,1-2.384.777c-.268-.054-.107-.375-.054-.777a9.133,9.133,0,0,0,.107-1.447c.054-.616.107-1.5.161-2.063.054-.509-.4-.777-.563-.723a1.106,1.106,0,0,1-.616-.054c-.107,0-.214-.107-.509-.161a.579.579,0,0,1-.509-.268c-.214-.214-.375-.455-.723-.455a1.512,1.512,0,0,0-.884.509,1.065,1.065,0,0,1-.616.321h-.161c-.268.054-.054.268-.054.268a.925.925,0,0,1,.214.161c.214.214.67.563.83.723A2.855,2.855,0,0,1,101,15.566c.107.563.616,2.17.616,2.17a.541.541,0,0,0,.107.268c.161.161,0,.4-.455.455a9.115,9.115,0,0,1-1.045.161,7.887,7.887,0,0,0-.991.107,4.812,4.812,0,0,0-.938.214,4.83,4.83,0,0,1-1.714.161c-.455-.054-.268.321-.268.563C96.37,19.906,96.5,19.906,96.879,20.12Z" transform="translate(-90.692 -12.03)" fill="#231815"/>
            <path id="Path_7" data-name="Path 7" d="M115.455,27.121a10.94,10.94,0,0,0-1.393-1.393,1.946,1.946,0,0,0-1.661-.509,10.788,10.788,0,0,1-1.339.4c-.509.054-1.554.268-2.116.268-.509.054-2.223.268-2.438.321-.161.054-.777.321-.777.161-.054-.161.161-.509.509-.884.4-.375.509-.67.938-1.822a3.725,3.725,0,0,0,.214-2.893A1.444,1.444,0,0,0,106,19.835a6.989,6.989,0,0,1-1.5,0c-.321,0,.107.455.107.455s.83.991.83,1.286c0,.214-.161.938-.214,1.661a11.427,11.427,0,0,1-.884,3.054c-.214.375-.161.375-1.152.616a29.691,29.691,0,0,1-2.947.509,6.529,6.529,0,0,1-.938.054c-.723,0-3.723.455-4.5.563-.777.161-2.839.509-3.107.509-.214,0,0,.991.67,1.286a4.66,4.66,0,0,0,2.947.214c.938-.214,2.652-.563,4.929-1.1.054,0,.054-.054.107-.054a34.545,34.545,0,0,1,5.438-.777c1.393-.107,5.063-.321,6.322-.321a5.01,5.01,0,0,1,2.17.455c.268.107.455-.107.938-.268C115.723,27.683,115.669,27.362,115.455,27.121Z" transform="translate(-91.615 -10.486)" fill="#231815"/>
            <path id="Path_8" data-name="Path 8" d="M99.225,21.364c-.054-.054-.107-.161-.161-.214-.161-.268-.214-.616-.375-.723-.214-.214-.455.161-.455.161a5.809,5.809,0,0,0-.268,1.286,11.881,11.881,0,0,0-.268,2.6,2.414,2.414,0,0,0,1.393,1.768,1.725,1.725,0,0,0,.509.214c.214,0,.884.268.884,0a2.267,2.267,0,0,0-.455-1.446,4.913,4.913,0,0,1-.67-2.17C99.332,22.3,99.493,21.686,99.225,21.364Z" transform="translate(-90.412 -10.382)" fill="#231815"/>
          </g>
          <g id="Group_7" data-name="Group 7" transform="translate(57.71 0.83)">
            <path id="Path_9" data-name="Path 9" d="M125.563,30.534c.214-.589.589-2.143.8-2.786,0-.107.054-.161.054-.214.107-.375.268-.7,0-.857,0-.054-.054-.054-.054-.107-.268-.214-.643-.7-1.071-1.125a.753.753,0,0,0-1.125-.054c-.107.161-.161.482-.321.75a.735.735,0,0,1-.7.321,3.66,3.66,0,0,0-.7.214H122.4a2.428,2.428,0,0,1,.054-.429,4.625,4.625,0,0,1,.054-.8c.107-.75.375-3.884.375-3.884a1.434,1.434,0,0,1,.107-.536c.107-.214.8-.161,1.232-.268a4.647,4.647,0,0,0,1.607-.375c.482-.375.321-1.018-.161-1.5-.429-.482-1.286-.268-1.661-.161-.321.054-.75.589-.911.589s0-.268.054-.589c.054-.375.107-2.411.268-3.4a8.061,8.061,0,0,0,.054-2.518c-.054-.375.161-.857.107-1.018a4.365,4.365,0,0,0-1.071-.429h-.054c-.375-.107-.321-.214-.589-.214a10.728,10.728,0,0,0-1.5-.161c-.482.054-.429.268-.429.268l.268.482a1.612,1.612,0,0,0,.536.589c.429.375.536,2.411.643,3.616.054,1.232.107,3.509.054,3.831,0,.321-1.875.857-2.411,1.018a3.18,3.18,0,0,1-1.339-.107c-.268,0-.321.268-.268.536s.429.214.429.214a2.8,2.8,0,0,1,.321.643,1.857,1.857,0,0,0,1.232,1.018c.536.054.375,0,.536-.161a1.444,1.444,0,0,1,.429-.375c.214-.161.7-.536.911-.482s.214.8.161,1.607-.321,3.348-.321,3.348l-.214.214a6.2,6.2,0,0,1-.857.589c-.161.107-.589-.214-.857-.429a12.82,12.82,0,0,0-1.768-.857.563.563,0,0,0-.054.643,16.171,16.171,0,0,1,1.232,1.661,18.339,18.339,0,0,1,1.125,4.045,1.564,1.564,0,0,0,.321.911c.321.375.429,1.232.7,1.339.321.054.214-.054.214-.375a5.684,5.684,0,0,1,.161-.964,5.952,5.952,0,0,1,.7-.214,1.523,1.523,0,0,0,.643-.214,5.649,5.649,0,0,0,.589-.375,13.09,13.09,0,0,1,2.089-.375.974.974,0,0,0,.536-.321s.054-.161-.214-.429S125.3,31.177,125.563,30.534Zm-1.527-.482a6.2,6.2,0,0,1-.054,1.125s-.964.643-1.5.911a.2.2,0,0,0-.161.054,8.218,8.218,0,0,1-1.125.375s0,.054-.161-.268a6.891,6.891,0,0,1-.375-2.25,5.9,5.9,0,0,0-.107-1.286s1.393-.482,1.822-.589h.107c.375-.107.8,0,1.125-.161.268-.161.643-.375.75-.214S123.983,29.195,124.036,30.052Z" transform="translate(-117.283 -8.917)" fill="#231815"/>
            <path id="Path_10" data-name="Path 10" d="M126.17,21.58a3.209,3.209,0,0,0,.911-1.232s.482.214.911.429a3.907,3.907,0,0,0,1.393.482,5.278,5.278,0,0,0,.911-.107c.268-.054.536-.107.964-.161.8-.161,1.554-.375,2.357-.482.857-.161,1.071-.107,1.446-.482s.107-.8-.321-1.179a10.3,10.3,0,0,1-.911-.7c-.375-.321-.589-.054-.8.214a3.868,3.868,0,0,1-1.286.964c-.321.107-.429.107-.75.214-.214.054-.482.107-.7.161a2.208,2.208,0,0,0-.482.107,2.218,2.218,0,0,1-.75.107c-.375,0-1.768.107-1.768.107s.054-.107.321-.7a29.245,29.245,0,0,0,1.286-2.893,23.037,23.037,0,0,0,.857-3.214c.268-1.447-.321-2.143-1.339-3a4.993,4.993,0,0,0-2.3-.964,3.61,3.61,0,0,0,.643,1.554,4.888,4.888,0,0,1,.7,1.661,4.492,4.492,0,0,1,0,.857c0,.321-.107,1.071-.268,2.572-.054.321-.375,1.714-.482,2.25s-.268,1.071-.429,1.768a9.5,9.5,0,0,1-.7,1.661,4.68,4.68,0,0,0-.268.7A3.95,3.95,0,0,1,126.17,21.58Z" transform="translate(-115.694 -9.258)" fill="#231815"/>
            <path id="Path_11" data-name="Path 11" d="M140.974,30.2c-1.072-.054-2.518-.375-5.545-1.822a17.519,17.519,0,0,1-4.741-3.241,11.188,11.188,0,0,0,.7-3.884,1.535,1.535,0,0,0-.964-1.071,2.612,2.612,0,0,0-.375-.161,1.648,1.648,0,0,0-1.286.107s0,.214.375.429.375.482.429,1.232a8.926,8.926,0,0,1-.161,2.089,12.173,12.173,0,0,1-1.5-1.661c-.107-.214-.268-.429-.911-.536-.643-.161-1.071-.321-1.447-.161-.321.161,0,.214,0,.214s.482.429,1.071.964c.536.536,2.518,2.947,2.518,2.947a9.378,9.378,0,0,1-1.929,3.723,4.915,4.915,0,0,1-2.3,1.822.587.587,0,0,0-.214.107s0,.161.214.161c.054.054.107.054.214.054a7.652,7.652,0,0,0,2.572-1.393,11.837,11.837,0,0,0,2.411-3.161,1.514,1.514,0,0,1,.321.268l.536.536a47.354,47.354,0,0,0,3.67,3.67,3.527,3.527,0,0,0,3.348.536,9.6,9.6,0,0,0,3.268-1.393C141.563,30.2,140.974,30.2,140.974,30.2Z" transform="translate(-115.818 -7.141)" fill="#231815"/>
          </g>
          <g id="Group_8" data-name="Group 8" transform="translate(88.408 1.464)">
            <path id="Path_12" data-name="Path 12" d="M160.445,24.115c-.375-.348-.777-.4-1.205-.75s-.8-.67-1.259-.455a.634.634,0,0,0-.295.67s-1.714.348-3.054.67c-.67.161-1.607.295-2.438.4-.83.054-1.554.08-1.929.08-.723,0-.777.321-.562.429.214.054.321.348.884.563a3.141,3.141,0,0,0,1.58.348,2.792,2.792,0,0,0,.83-.161,35.345,35.345,0,0,1,4.581-.643,3.251,3.251,0,0,1-.08,1.045c-.134.938-.375,3.188-.375,3.188s-1.447.295-2.17.348c-.375.054-1.714.295-2.866.509-1.045.134-1.929.295-1.929.295a6.574,6.574,0,0,0-.161-.67c-.107-.616-.562-2.545-.777-3.375a2.367,2.367,0,0,0-1.339-1.795c-.777-.348-1.527-.589-1.634-.7-.161-.054-.161.375-.161.375a8.884,8.884,0,0,1,.964,1.393,17.918,17.918,0,0,1,1.205,3.161,12.839,12.839,0,0,1,.563,2.277c.107.83,1.071,1.955,1.286,1.688.268-.268.134-1.018.134-1.045a3.31,3.31,0,0,0,.884-.161c.214,0,.563-.054.938-.08,1.5-.188,3.911-.429,4.741-.482a5.2,5.2,0,0,0,2.331-.616c.4-.268-.268-.83-.268-.83s-.161-.107.134-1.045a24.3,24.3,0,0,1,1.286-3.4C160.552,24.945,160.873,24.517,160.445,24.115Z" transform="translate(-142.281 -7.203)" fill="#231815"/>
            <path id="Path_13" data-name="Path 13" d="M145.055,15.2a5.507,5.507,0,0,0-1.741-1.473c-.161.161-.054.509.134,1.205A19.777,19.777,0,0,1,143.5,18.9c.054.616-.589,1.768-.589,2.143-.054.375.857,1.393,1.232,1.554.321.107.777-.214.884-.75.054-.616.08-1.259.214-2.6a14.761,14.761,0,0,0,.214-3.295A1.339,1.339,0,0,0,145.055,15.2Z" transform="translate(-142.91 -9.006)" fill="#231815"/>
            <path id="Path_14" data-name="Path 14" d="M162.951,14.564a4.9,4.9,0,0,0-1.982-.8c-.161,0-.348.321-.563.482-.268.214-1.152.134-2.866.348-1.714.188-4.259.429-4.259.429a.166.166,0,0,1-.214-.107,4.388,4.388,0,0,1-.08-1.152,1.763,1.763,0,0,1,.134-.991c.107-.429.616-.75.348-1.366s-.429-.938-.857-1.018c-.054,0-.054,0-.054-.054a5.7,5.7,0,0,0-.616-.054,1.179,1.179,0,0,0-1.607-.295c-.348.375-1.045-.188-1.1.08a2.882,2.882,0,0,0,.134,1.1,1.337,1.337,0,0,0,.321.509c.214.161.83.241.991.616a12.347,12.347,0,0,1,.563,2.6c.054.563-.4.429-.884.536-.509.054-2.17.4-2.6.4-.375.054-1.152-.134-1.661-.134-.429,0-.188.616.161.884.375.295,1.071,1.125,1.527.964a18.984,18.984,0,0,1,2.17-.616c1.232-.375,1.929-.509,1.929-.509a.9.9,0,0,0,.161.455c.107.214.214,0,.4-.161l.054-.054c.268-.214.054-.161.348-.268a3.592,3.592,0,0,1,1.232-.429,17.635,17.635,0,0,1,2.759-.054c1.152.027,3.911-.107,3.911-.107a6.043,6.043,0,0,1-.241,1.366,2.728,2.728,0,0,1-1.071,1.58s0,.161.214.107c.214,0,.214-.214,1.232-.589a6.608,6.608,0,0,0,2.732-1.661,1,1,0,0,0,.348-.589V15.85A1.9,1.9,0,0,0,162.951,14.564Z" transform="translate(-142.323 -9.786)" fill="#231815"/>
            <path id="Path_15" data-name="Path 15" d="M151.994,22.457c-.429.054-.884.161-.991.08a1.724,1.724,0,0,1-.268-.884c0-.375-.027-1.554-.027-1.982a1.221,1.221,0,0,0-.643-1.232c-.75-.563-2.25-1.045-2.464-.857-.214.214,0,.509,0,.509.509.054.7.616,1.125,1.339a18.6,18.6,0,0,1,.83,3.777,4.566,4.566,0,0,0,.857,1.661c.161.107.268-.214.295-.536,0-.321.295-.375.938-.482a1.892,1.892,0,0,1,.321-.054c.83-.161,2.33-.4,2.652-.4.375.054.536.295.723.348.161.054.723.054.83-.268.054-.268,0-.482.08-1.205a14.143,14.143,0,0,1,.08-1.768,15.54,15.54,0,0,1,.268-2.6c.188-.616-.321-1.1-.8-1.393a2.944,2.944,0,0,0-2.089.027,8.847,8.847,0,0,1-1.607.589,8.038,8.038,0,0,0-1.045.375c-.321.107-.83.536-.616.536.268-.054.777.348,1.313.455h.321a10.978,10.978,0,0,0,1.982-.134c.509-.107.375.161.429,1.152.08.991.08,2.438.08,2.438s-1.045.268-1.607.348A8.98,8.98,0,0,0,151.994,22.457Z" transform="translate(-142 -8.491)" fill="#231815"/>
          </g>
          <g id="Group_9" data-name="Group 9" transform="translate(117.23)">
            <path id="Path_16" data-name="Path 16" d="M180.745,12.043a3.805,3.805,0,0,1,.7.643c.214.161.429.321.589.429.429.268.643-.054.643-.375a12.086,12.086,0,0,1,0-1.393.667.667,0,0,0-.536-.75c-.321-.107-.214.054-.7-.107a.053.053,0,0,1-.054-.054c-.536-.161-.964-.107-1.125.107a1.023,1.023,0,0,0,0,.589A1.609,1.609,0,0,0,180.745,12.043Z" transform="translate(-164.348 -8.213)" fill="#231815"/>
            <path id="Path_17" data-name="Path 17" d="M174.714,18.431c.161-.214-.214-.643-.589-.964a2.946,2.946,0,0,0-.482-.375c-.375-.268-.8,0-1.125.214a1.445,1.445,0,0,1-.75.321,20.935,20.935,0,0,1,.161-2.2c-.054-.643-.214-2.2-.643-2.572a3.885,3.885,0,0,0-2.411-.482c-.161.214.321.643.321.643s-.107.161.429,1.179a15.542,15.542,0,0,1,.643,4.206s-1.822.75-2.518,1.125c-.7.429-.857.75-.75.964.107.161.911.107,1.768,0a8.3,8.3,0,0,0,1.5-.429,12.335,12.335,0,0,1,.054,1.982c-.054,1.179-.054,6.991.054,8.17a6.3,6.3,0,0,0,.7,2.572c.268.268.482-.482.589-1.5.161-1.071-.054-2.625,0-3.991a33.74,33.74,0,0,0,.054-4.741,14.318,14.318,0,0,1,.161-3s.429-.161,1.179-.375c.375-.107.75-.214,1.071-.321C174.393,18.753,174.661,18.592,174.714,18.431Z" transform="translate(-166.969 -7.823)" fill="#231815"/>
            <path id="Path_18" data-name="Path 18" d="M187.249,24.288c-.589-.643-1.339-.321-2.036,0a18.086,18.086,0,0,1-2.25.482,2.825,2.825,0,0,1-.7.107.765.765,0,0,1-.161-.375c0-.268-.536-.643-.75-.7-.268-.107-.268-.268-.268-.268h.429c.161,0,.268.161.536.054s.643-.536.911-1.661c.054-.107.054-.214.107-.321a25.385,25.385,0,0,1,.857-3.67,1.038,1.038,0,0,0,0-1.232,2.782,2.782,0,0,0-1.446-.643s-.161-.375-.482-.214c-.214.054-1.071.214-1.768.375-.643.161-1.232.268-1.232.268l-.107-2.411s-.161.054.214-.214a5.534,5.534,0,0,1,1.125-.375c.161-.054.321-.054.429-.107a1.955,1.955,0,0,0,.75-.482,1.529,1.529,0,0,0-.964-1.339h-.214a3.689,3.689,0,0,0-1.286.375.974.974,0,0,0,0-.482,5.085,5.085,0,0,1,0-1.286,1.277,1.277,0,0,0-.911-1.393,1.917,1.917,0,0,0-2.089.214c-.161.268.214.643.7,1.232a4.027,4.027,0,0,1,.536,1.822,3.606,3.606,0,0,1,.054.536l-.054.054a5.4,5.4,0,0,0-1.5.589,5.935,5.935,0,0,1-1.982.589c-.375.107.054.482.054.482a2.656,2.656,0,0,0,.8.482,3.811,3.811,0,0,0,1.875-.107c.321-.107.589-.161.75-.214h.107a4.87,4.87,0,0,0,.107.643c.054.589.214,1.822.214,1.822s-.161.054-.429.161a16.619,16.619,0,0,1-1.714.589c-.375.054-.054.268.161.268a12.427,12.427,0,0,1,1.286.107h.268a3.938,3.938,0,0,0,.429-.107l.214,1.822s-.054.214-.161.214a2.717,2.717,0,0,0-.482.107,3.563,3.563,0,0,1-.857.321c-.161,0-.107-.643-.107-1.018a1,1,0,0,0-.643-.964,5.854,5.854,0,0,0-1.286-.75c-.268,0-.375.643,0,1.339s1.125,4.045,1.393,4.741c.214.7.268.75.429.643.161-.054.214-.321.214-.321s.107-.107.857-.107h.161c.857-.054,2.3-.107,2.3-.107a7.338,7.338,0,0,1,.429.75,1.171,1.171,0,0,1,.161.268l.214.429h-.214c-.375.054-1.179.161-2.411.375a2.689,2.689,0,0,0-.643.107c-1.554.321-3.563.8-4.152.964a.415.415,0,0,1-.161.054s-.8.161-.321.589a1.485,1.485,0,0,0,.482.268,5.934,5.934,0,0,0,1.018.107,5.473,5.473,0,0,0,1.554-.161c.268-.054.911-.161,1.607-.321.964-.214,2.036-.429,2.625-.536.161-.054.321-.054.429-.107.589-.107.643-.107.643-.107.214,1.768.268,6.188.268,6.188a8.02,8.02,0,0,0-.911.161,2.7,2.7,0,0,0-.7.214c-.321.161.107.857.643,1.179l.054.054c.429.375.429,1.607.482,1.714.107.107.7.268.75.375.08.054.134-.027.482-.589a11.439,11.439,0,0,0,.7-4.527,43.493,43.493,0,0,0-.321-4.741c0-.214.268-.268.643-.268h4.045c.7.054.964,0,1.232-.214C188.535,25.9,187.839,24.931,187.249,24.288Zm-9.242-1.339s-.375.107-.8.214a3.06,3.06,0,0,0-.8.321,7,7,0,0,0,.054-1.661,2.638,2.638,0,0,1-.054-.857,7.277,7.277,0,0,0,.8-.054,1.47,1.47,0,0,0,.7-.107c.107-.054,0,.75.054,1.071A4.059,4.059,0,0,1,178.008,22.949Zm2.3-.375h-.054c-.643.107-1.179.161-1.179.161s-.214-1.982,0-2.143c.214-.107.7-.161,1.179-.321a1.134,1.134,0,0,0,.375-.161c.214-.161-.161-.375-.375-.589-.054-.054-.107-.107-.161-.107-.161-.214-.321-.161-.643-.107s-.589.214-.536.161a16.337,16.337,0,0,1,.107-1.714s.643-.214,1.232-.375a2.765,2.765,0,0,1,.589-.107,1,1,0,0,1,.75.107,7.288,7.288,0,0,0-.161,1.447c-.054.7.107,3.214-.054,3.563A9.987,9.987,0,0,1,180.312,22.574Z" transform="translate(-165.897 -8.564)" fill="#231815"/>
            <path id="Path_19" data-name="Path 19" d="M177.242,25.595a4.071,4.071,0,0,1-.589-.214,7,7,0,0,0-1.179-.268c-.429-.054-.268.321-.268.321s.375.857.643,1.339a5.862,5.862,0,0,0,.8.964c.268.214.536.429.7.536.375.161.536-.054.643-.321a2.522,2.522,0,0,0,.054-1.286A1.305,1.305,0,0,0,177.242,25.595Z" transform="translate(-165.345 -5.29)" fill="#231815"/>
          </g>
          <g id="Group_10" data-name="Group 10" transform="translate(147.406 1.045)">
            <path id="Path_20" data-name="Path 20" d="M201.418,19.214c.268-.321,0-.589-.214-.857,0-.054-.054-.054-.054-.107A3.589,3.589,0,0,0,200,17.365c-.321-.054-.321.375-.643.589-.268.161-.107-1.1-.054-2.277a33.024,33.024,0,0,0,.161-3.75,1.427,1.427,0,0,0-.938-1.42c-.643-.429-1.045-.589-1.205-.7-.161-.054-1.045-.321-1.313-.375-.321,0,.268,1.1.429,1.634s.7.857.75,1.527c.107.643.161,3.8.268,5.063s-.107,1.42-.107,1.42a3.862,3.862,0,0,1-.429.161c-.321.161-1.42.884-1.42.884a3.21,3.21,0,0,1,.054-.991,2.885,2.885,0,0,1,.7-1.527,1.41,1.41,0,0,0-.536-1.42,3.5,3.5,0,0,1-1.1-.7c-.375-.268-1.259-.7-1.366-.482a1.3,1.3,0,0,0,0,.482,9.576,9.576,0,0,0,.536,1.152,3.1,3.1,0,0,1,.375,2.17,5.427,5.427,0,0,1-.8,1.955c-.214.482,0,1.205.268,1.313.214.107.8.589,1.313.214a15.416,15.416,0,0,1,1.848-1.42,1.48,1.48,0,0,1,.7-.268c.054.268.161,3.322.161,3.322a6.728,6.728,0,0,1-.911.938c-.589.482-2.063,1.955-2.625,2.572a1.344,1.344,0,0,1-1.473.375c-.268-.161-.589,0-.429.536a2.563,2.563,0,0,0,1.634,1.366c.482,0,.884-.429,1.741-1.741a19.477,19.477,0,0,1,2.063-2.545s0,.589.054,1.473c.054.857,0,2.545-.054,3.375,0,.8-.161,2.223-.161,2.223a3.278,3.278,0,0,0-.884.107c-.214.161,0,.7.268,1.045a16.075,16.075,0,0,1,1.045,1.634c.054.214.268.161.482,0,.214-.214.214-.7.429-1.1a1.854,1.854,0,0,0,.214-1.366c-.161-.375,0-.643-.054-1.9-.107-1.259-.214-7.447-.214-7.447l.321-.75-.321.054a22.1,22.1,0,0,1,.268-2.786c.107-.482.321-.268.8-.375a10.535,10.535,0,0,0,1.205-.107C201.257,19.375,201.364,19.321,201.418,19.214Z" transform="translate(-192.16 -9.436)" fill="#231815"/>
            <path id="Path_21" data-name="Path 21" d="M213.558,19.421a5.12,5.12,0,0,0-.857-.938,1.281,1.281,0,0,0-1.313,0c-.429.161-.482.054-1.205.107-.75.107-3.214.054-3.8.161-.643.054-1.473.161-2.063.268a2.738,2.738,0,0,1-1.366-.268c.214-.321,1.688-3.161,2.009-3.964a9.864,9.864,0,0,0,.321-1.795.988.988,0,0,0-.429-1.1c-.268-.214-.161-.214-.429-.321a8,8,0,0,1-1.1-.482,1.833,1.833,0,0,0-1.313-.214c-.214.054.161.321.161.321a3.974,3.974,0,0,1,.536.991c.321.589-.161,2.223-.482,3.375-.268,1.1-1.527,4.072-1.848,5.009a10.673,10.673,0,0,1-.643,1.366c-.268.429-.429.7-.429.7s.107.107.429-.161a13.466,13.466,0,0,0,1.366-1.313,22.055,22.055,0,0,0,1.42-1.848A2.42,2.42,0,0,0,203,19.9c.214.268.75.75.991,1.1.214.268-.429,2.116-1.58,4.473a40.28,40.28,0,0,1-2.063,3.911c-.054.107-.429.375-.054.321.429,0,1.045-.857,1.527-1.58.482-.643,1.955-2.839,2.679-3.8a15.624,15.624,0,0,0,1.366-2.786c.161-.321-.375-.857-.375-.857s-.161-.107.054-.214a7.819,7.819,0,0,1,1.366-.214s0,.214.107,1.205c.107,1.045-.8,2.839-1.152,3.643a36.414,36.414,0,0,1-1.795,3.536c-.482.7-1.259,2.17-1.473,2.384a1.349,1.349,0,0,0-.429.589s.054.054.991-.482,2.17-2.223,3.536-4.527c1.366-2.33,1.741-3.589,1.688-4.634-.054-.991-1.205-1.688-1.205-1.688a10.481,10.481,0,0,1,1.688-.107c1.152,0,2.545-.107,2.545-.107s.107-.107.161.589a16.5,16.5,0,0,1-.75,4.125,21.438,21.438,0,0,1-1.527,3.429c-.321.536-.75,1.473-1.205,1.473-.375,0-.643-.268-.938-.268-.321,0-.107.536.054.8.214.268.107,1.045.161,1.473s-.054.589.7.375c.8-.214,1.9-1.688,3.054-3.8,1.205-2.116,2.438-7.072,2.732-7.849S213.718,19.582,213.558,19.421Z" transform="translate(-190.745 -9.162)" fill="#231815"/>
          </g>
          <g id="Group_11" data-name="Group 11" transform="translate(177.937 1.629)">
            <path id="Path_22" data-name="Path 22" d="M229.608,17.441a2.217,2.217,0,0,1-.67.321c-.536.161-1.152.321-1.259.375-.268.107-.991-.214-1.42-.107s.054.723.054.723c.268,0,.563.536.723.83.161.375.563.214.67-.107.161-.375.563-.429.991-.67.054-.054.107-.054.214-.107a7.255,7.255,0,0,1,1.152-.268c.482-.107,1.152-.429,1.366-.268s.375-.723.214-.884a2.855,2.855,0,0,0-1.313-.375C230.036,16.905,229.876,17.28,229.608,17.441Z" transform="translate(-215.977 -8.542)" fill="#231815"/>
            <path id="Path_23" data-name="Path 23" d="M227.587,15.581a6.432,6.432,0,0,1-1.58-.054c.321.563.563,1.205,1.1,1.259a6.627,6.627,0,0,0,1.821-.563c.268-.107.563-.214.83-.321a28.092,28.092,0,0,1,3.75-.616,7.687,7.687,0,0,1-.161,1.313c-.161.777-.482.991-.375.991a4.761,4.761,0,0,0,2.089-.991c.83-.777,1.205-1.045,1.1-1.58-.054-.563-.562-.429-.777-.536-.268-.054-.482-.321-.83-.563-.429-.214-.991-.482-1.1-.161a1.271,1.271,0,0,1-.509.563,15.4,15.4,0,0,0-3.456.723s-.054-.991,0-2.143a6.02,6.02,0,0,1,.321-1.768c.054-.429-.375-.536-.884-.723a2.611,2.611,0,0,1-.375-.161c-.67-.321-.67-.107-.67-.107a1.091,1.091,0,0,0-.589-.107,2.808,2.808,0,0,1-.938-.107c-.268-.054-.107.321.214.67.321.321.107.67.482.938a1.107,1.107,0,0,1,.482.616c.107.375.616,3.027.616,3.027A.933.933,0,0,1,227.587,15.581Z" transform="translate(-215.992 -9.924)" fill="#231815"/>
            <path id="Path_24" data-name="Path 24" d="M223.614,18.2a.926.926,0,0,0,.107.375,1.649,1.649,0,0,0,.214.482,10.8,10.8,0,0,0,1.045,1.205s.107-.054.321-.482a3.162,3.162,0,0,0,.429-1.205c.054-.563.054-1.205.107-2.3a1.58,1.58,0,0,0-.884-1.634,1.305,1.305,0,0,0-.777-.321s0,.161.107.991a6.77,6.77,0,0,1-.107,2.089c-.054.563-.321.723-.429.777C223.614,18.249,223.614,18.2,223.614,18.2Z" transform="translate(-216.465 -9.056)" fill="#231815"/>
            <path id="Path_25" data-name="Path 25" d="M242.716,27.807a2.185,2.185,0,0,0-.375-1.259s-.161.429-.482,1.1A3.469,3.469,0,0,1,239.1,29.9a21.666,21.666,0,0,1-7.313.321c-.616-.214-.723-.723-.723-1.527,0-.777,1.313-3.348,1.527-4.018.268-.616-.161-1.42-.536-1.473a10.459,10.459,0,0,1-1.313-.482,4.369,4.369,0,0,1,.054-.536.921.921,0,0,0-.214-.777s-.107-.107.268-.268c.375-.107,1.42-.536,1.714-.616.268-.107.321.161.321.321s.482-.268.67-.482c.214-.214-.161-.616-.589-.938a.933.933,0,0,0-1.259.054,7.154,7.154,0,0,1-2.089.938l-.054.054c-.67.268-2.973,1.313-3.4,1.527a5.53,5.53,0,0,1-2.089-.161c-.482-.054,0,.482,0,.616a4.627,4.627,0,0,0,.536.884,1.325,1.325,0,0,0,1.205.536,2.163,2.163,0,0,1,.777-.616c.563-.321,2.572-1.42,2.973-1.607h.054a3.412,3.412,0,0,1-.054.723,16.542,16.542,0,0,1-2.625,4.072,21.363,21.363,0,0,1-3.081,3.295,12.261,12.261,0,0,1-1.205.884s.107.321.616-.054a1.675,1.675,0,0,0,.563-.375c.616-.482,1.714-1.42,3.188-2.679a18,18,0,0,0,2.518-2.813,13.14,13.14,0,0,0,.777-1.205s.107.214.268.563c.161.429,0,.991-.321,2.732a5.335,5.335,0,0,0,.214,3.723c.536,1.205,6,1.634,8.358,1.473,2.411-.161,3.456-1.313,3.67-1.768A4.174,4.174,0,0,0,242.716,27.807Z" transform="translate(-216.656 -8.087)" fill="#231815"/>
            <path id="Path_26" data-name="Path 26" d="M224.473,23.476a1.428,1.428,0,0,0,.429-.616,5.434,5.434,0,0,0,0-1.875.322.322,0,0,1-.054-.214,14.035,14.035,0,0,0-1.366-3.75c-.268-.321-1.1-1.313-1.1-1.313a27.364,27.364,0,0,0,2.3-3.723c.268-.482.054-.536-.375-.777-.375-.268-.536-.429-.83-.67-.321-.321-.991-.107-1.42.054-.429.107-.509.67-.509.67s-.054.214-.777.429c-.777.214-1.42.321-1.527.375-.107,0-.482.107-.563.268-.107.161,0,.536,0,.536a12.461,12.461,0,0,0,1.313.938c.268.107.214.054.616-.375.429-.429.482-.375,1.259-.723.777-.375.214.429.321.563a15.142,15.142,0,0,1-.884,2.357,3.473,3.473,0,0,0-.321.938c-.107.429.375.536.375.536a4.117,4.117,0,0,0,.375-.321c.161-.214.321,0,.723.482.429.536.429,2.2.482,2.866.107.67-.375.563-.83.482-.482-.107-1.714-.482-1.714-.482v-.563c0-.429,0-1.982-.054-2.92a1.358,1.358,0,0,0-.536-1.313,14.18,14.18,0,0,0-1.982-1.259s-.375.161-.054.884a14.709,14.709,0,0,1,1.1,4.018,50.067,50.067,0,0,1,.321,7.741c0,1.714-.268,5.6-.268,6.322s.616,1.688.991,1.58.562-.616.562-1.259c.054-.563,0-2.2.054-4.232.054-1.982-.161-7.741-.161-7.741s-.054-.375.214-.429a.764.764,0,0,1,.67.214c.268.161.884.884,1.366,1.259S223.964,23.958,224.473,23.476Z" transform="translate(-217.646 -9.836)" fill="#231815"/>
          </g>
        </g>
        <g id="Group_13" data-name="Group 13" transform="translate(0 32.386)">
          <path id="Path_27" data-name="Path 27" d="M78.186,36.274a4,4,0,0,0-.455.054,1.078,1.078,0,0,0-.536.241.941.941,0,0,0-.295.536,6.192,6.192,0,0,0-.08,1.152v6H75.8l-4.982-6.482v3.938a6.068,6.068,0,0,0,.08,1.125,1.13,1.13,0,0,0,.295.563,1.994,1.994,0,0,0,.482.241c.214.054.4.107.509.134v.455h-3.4v-.455a4.857,4.857,0,0,0,.509-.08,1.324,1.324,0,0,0,.482-.214.955.955,0,0,0,.295-.509,5.812,5.812,0,0,0,.08-1.152V37.854a2.04,2.04,0,0,0-.08-.563.983.983,0,0,0-.268-.455,1.4,1.4,0,0,0-.455-.321,2.767,2.767,0,0,0-.563-.188v-.455h3l4.366,5.679V38.363a3.942,3.942,0,0,0-.107-1.125,1.13,1.13,0,0,0-.295-.563,2,2,0,0,0-.482-.241c-.214-.054-.375-.107-.509-.134v-.455h3.429Z" transform="translate(-68.784 -35.551)" fill="#231815"/>
          <path id="Path_28" data-name="Path 28" d="M86.258,44.221H81.892v-.455c.214-.027.455-.054.723-.107s.429-.134.429-.241V43.31a1.054,1.054,0,0,0-.054-.161l-.7-1.741H79.508c-.054.161-.134.348-.214.563s-.134.4-.188.589a3.529,3.529,0,0,0-.134.482.753.753,0,0,0-.027.214c0,.134.08.241.268.321a2.777,2.777,0,0,0,.911.188v.455H76.856v-.455a2.671,2.671,0,0,0,.429-.054,1.223,1.223,0,0,0,.375-.134,1.712,1.712,0,0,0,.4-.348,2.055,2.055,0,0,0,.268-.482c.429-1.1.857-2.223,1.313-3.322.429-1.1.911-2.33,1.447-3.67h1.125c.723,1.9,1.313,3.4,1.714,4.5.429,1.1.777,2.009,1.071,2.732a2,2,0,0,0,.188.321,1.072,1.072,0,0,0,.321.268,1.549,1.549,0,0,0,.375.134,2.1,2.1,0,0,0,.375.054Zm-4.206-3.4L80.9,37.765l-1.152,3.054Z" transform="translate(-67.186 -35.568)" fill="#231815"/>
          <path id="Path_29" data-name="Path 29" d="M92.464,38.229h-.455a4.531,4.531,0,0,0-.563-1.152c-.268-.4-.482-.616-.7-.67-.134-.027-.268-.027-.455-.054-.188,0-.321-.027-.455-.027h-.268V42.89a.855.855,0,0,0,.08.375.585.585,0,0,0,.295.268,2.02,2.02,0,0,0,.4.107c.188.027.348.054.455.08v.455H86.357v-.455a4,4,0,0,0,.455-.054,2.568,2.568,0,0,0,.4-.08.539.539,0,0,0,.295-.241.856.856,0,0,0,.08-.375V36.354h-.268a2.919,2.919,0,0,0-.455.027,2.359,2.359,0,0,0-.455.054c-.214.027-.455.241-.7.67a6.483,6.483,0,0,0-.563,1.152h-.4V35.845h7.741v2.384Z" transform="translate(-65.624 -35.551)" fill="#231815"/>
          <path id="Path_30" data-name="Path 30" d="M97,44.2h-4.42v-.455c.107,0,.241-.027.455-.027a1.154,1.154,0,0,0,.4-.08.539.539,0,0,0,.295-.241.778.778,0,0,0,.08-.375V37.1a.742.742,0,0,0-.08-.348.459.459,0,0,0-.295-.241c-.08-.027-.214-.08-.4-.134a1.632,1.632,0,0,0-.455-.08v-.455H97V36.3a3.67,3.67,0,0,0-.429.054c-.161.027-.321.054-.429.08a.539.539,0,0,0-.295.241.856.856,0,0,0-.08.375v5.92a.856.856,0,0,0,.08.375.459.459,0,0,0,.295.241,2.02,2.02,0,0,0,.4.107,3.42,3.42,0,0,0,.455.054Z" transform="translate(-64.075 -35.551)" fill="#231815"/>
          <path id="Path_31" data-name="Path 31" d="M104.916,36.8a4.135,4.135,0,0,1,.938,1.366,4.42,4.42,0,0,1,.348,1.822,5.4,5.4,0,0,1-.295,1.741,3.808,3.808,0,0,1-.857,1.42,4.863,4.863,0,0,1-1.366.964,4.424,4.424,0,0,1-1.875.348,4.925,4.925,0,0,1-1.661-.295,3.751,3.751,0,0,1-1.366-.884,4.136,4.136,0,0,1-.938-1.366,4.293,4.293,0,0,1-.348-1.795,4.949,4.949,0,0,1,.321-1.848,4.006,4.006,0,0,1,2.3-2.33,4.5,4.5,0,0,1,1.688-.321,5.08,5.08,0,0,1,1.688.295A4.14,4.14,0,0,1,104.916,36.8Zm-1.447,5.974a4.9,4.9,0,0,0,.375-1.205,8.9,8.9,0,0,0,.107-1.527,8.239,8.239,0,0,0-.107-1.42,4.394,4.394,0,0,0-.348-1.232,2.333,2.333,0,0,0-.643-.857,1.571,1.571,0,0,0-.991-.321,1.7,1.7,0,0,0-1.554,1.018,6.345,6.345,0,0,0-.536,2.866,8.464,8.464,0,0,0,.107,1.473,3.978,3.978,0,0,0,.375,1.205,1.949,1.949,0,0,0,.643.8,1.725,1.725,0,0,0,1.929,0A1.949,1.949,0,0,0,103.469,42.774Z" transform="translate(-63.101 -35.595)" fill="#231815"/>
          <path id="Path_32" data-name="Path 32" d="M115.283,36.274a4,4,0,0,0-.455.054,1.078,1.078,0,0,0-.536.241A.94.94,0,0,0,114,37.1a6.192,6.192,0,0,0-.08,1.152v6H112.9l-4.982-6.482v3.938a6.066,6.066,0,0,0,.08,1.125,1.13,1.13,0,0,0,.295.563,2,2,0,0,0,.482.241c.214.054.4.107.509.134v.455h-3.4v-.455a4.858,4.858,0,0,0,.509-.08,1.324,1.324,0,0,0,.482-.214.955.955,0,0,0,.295-.509,5.81,5.81,0,0,0,.08-1.152V37.854a2.04,2.04,0,0,0-.08-.563.983.983,0,0,0-.268-.455,1.4,1.4,0,0,0-.455-.321,2.766,2.766,0,0,0-.563-.188v-.455h3l4.366,5.679V38.363a3.941,3.941,0,0,0-.107-1.125,1.13,1.13,0,0,0-.295-.563,1.994,1.994,0,0,0-.482-.241c-.214-.054-.375-.107-.509-.134v-.455h3.429v.429Z" transform="translate(-61.441 -35.551)" fill="#231815"/>
          <path id="Path_33" data-name="Path 33" d="M123.329,44.221h-4.366v-.455c.214-.027.455-.054.723-.107s.429-.134.429-.241V43.31a1.053,1.053,0,0,0-.054-.161l-.67-1.741h-2.786c-.054.161-.134.348-.214.563s-.134.4-.188.589a3.536,3.536,0,0,0-.134.482.755.755,0,0,0-.027.214c0,.134.08.241.268.321a2.777,2.777,0,0,0,.911.188v.455h-3.268v-.455a2.671,2.671,0,0,0,.429-.054,1.223,1.223,0,0,0,.375-.134,1.713,1.713,0,0,0,.4-.348,2.055,2.055,0,0,0,.268-.482c.429-1.1.857-2.223,1.313-3.322.429-1.1.911-2.33,1.447-3.67h1.125c.723,1.9,1.313,3.4,1.714,4.5s.777,2.009,1.072,2.732a2,2,0,0,0,.188.321,1.072,1.072,0,0,0,.321.268,1.549,1.549,0,0,0,.375.134,2.1,2.1,0,0,0,.375.054v.455Zm-4.179-3.4L118,37.765l-1.152,3.054Z" transform="translate(-59.844 -35.568)" fill="#231815"/>
          <path id="Path_34" data-name="Path 34" d="M130.376,41.524l-.161,2.679h-7.34v-.455a2.981,2.981,0,0,0,.455-.054,1.314,1.314,0,0,0,.348-.08.539.539,0,0,0,.295-.241.778.778,0,0,0,.08-.375V37.1a1.188,1.188,0,0,0-.054-.348.553.553,0,0,0-.295-.241,1.348,1.348,0,0,0-.429-.134q-.241-.04-.4-.08v-.455h4.366V36.3a3.094,3.094,0,0,0-.429.054c-.161.027-.295.054-.429.08a.539.539,0,0,0-.295.241.856.856,0,0,0-.08.375v5.491a3.494,3.494,0,0,0,.054.616.472.472,0,0,0,.188.321.658.658,0,0,0,.4.134,5.618,5.618,0,0,0,.723.027c.295,0,.589-.027.884-.054a.937.937,0,0,0,.616-.241,3.7,3.7,0,0,0,.589-.83,10.857,10.857,0,0,0,.482-.991Z" transform="translate(-58.078 -35.551)" fill="#231815"/>
          <path id="Path_35" data-name="Path 35" d="M142.178,37.908a2.536,2.536,0,0,1-.268,1.232,2.1,2.1,0,0,1-.777.83,4.025,4.025,0,0,1-1.152.482,6.042,6.042,0,0,1-1.447.134h-.643v2.357a.855.855,0,0,0,.08.375.539.539,0,0,0,.295.241c.08.027.187.054.375.107.161.027.321.054.429.08V44.2h-4.34v-.455a3.09,3.09,0,0,0,.429-.054,2.1,2.1,0,0,0,.375-.08.539.539,0,0,0,.295-.241.709.709,0,0,0,.08-.375V37.1a.67.67,0,0,0-.08-.348.459.459,0,0,0-.295-.241,2.762,2.762,0,0,0-.429-.134,3.482,3.482,0,0,1-.4-.08v-.455h4.42a4.078,4.078,0,0,1,2.3.509A1.769,1.769,0,0,1,142.178,37.908Zm-2.2.295a2.218,2.218,0,0,0-.375-1.393,1.613,1.613,0,0,0-1.313-.455h-.482V40h.241a2.047,2.047,0,0,0,1.42-.429A1.685,1.685,0,0,0,139.982,38.2Z" transform="translate(-55.737 -35.551)" fill="#231815"/>
          <path id="Path_36" data-name="Path 36" d="M150.453,44.221h-4.366v-.455c.214-.027.455-.054.723-.107s.429-.134.429-.241V43.31a1.052,1.052,0,0,0-.054-.161l-.67-1.741H143.73c-.054.161-.134.348-.214.563s-.134.4-.187.589a3.524,3.524,0,0,0-.134.482c0,.107-.027.161-.027.214,0,.134.08.241.268.321a2.777,2.777,0,0,0,.911.188v.455h-3.268v-.455a2.67,2.67,0,0,0,.429-.054,1.223,1.223,0,0,0,.375-.134,1.712,1.712,0,0,0,.4-.348,2.056,2.056,0,0,0,.268-.482c.429-1.1.857-2.223,1.313-3.322.429-1.1.911-2.33,1.446-3.67h1.125c.723,1.9,1.313,3.4,1.714,4.5.429,1.1.777,2.009,1.071,2.732a2,2,0,0,0,.188.321,1.072,1.072,0,0,0,.321.268,1.55,1.55,0,0,0,.375.134,2.1,2.1,0,0,0,.375.054v.455Zm-4.179-3.4-1.152-3.054-1.152,3.054Z" transform="translate(-54.475 -35.568)" fill="#231815"/>
          <path id="Path_37" data-name="Path 37" d="M157.5,41.524,157.34,44.2H150v-.455a2.982,2.982,0,0,0,.455-.054,1.314,1.314,0,0,0,.348-.08.539.539,0,0,0,.295-.241.778.778,0,0,0,.08-.375V37.1a1.189,1.189,0,0,0-.054-.348.553.553,0,0,0-.295-.241,1.348,1.348,0,0,0-.429-.134q-.241-.04-.4-.08v-.455h4.366V36.3a3.093,3.093,0,0,0-.429.054c-.161.027-.295.054-.429.08a.539.539,0,0,0-.295.241.856.856,0,0,0-.08.375v5.491a3.492,3.492,0,0,0,.054.616.472.472,0,0,0,.188.321.658.658,0,0,0,.4.134,5.617,5.617,0,0,0,.723.027c.295,0,.589-.027.884-.054a.937.937,0,0,0,.616-.241,4.812,4.812,0,0,0,.589-.83c.188-.375.348-.7.482-.991Z" transform="translate(-52.709 -35.551)" fill="#231815"/>
          <path id="Path_38" data-name="Path 38" d="M166.169,44.221h-4.339v-.455c.214-.027.455-.054.723-.107s.429-.134.429-.241V43.31a1.054,1.054,0,0,0-.054-.161l-.67-1.741h-2.786c-.054.161-.134.348-.214.563s-.134.4-.188.589a3.533,3.533,0,0,0-.134.482.755.755,0,0,0-.027.214c0,.134.08.241.268.321a2.777,2.777,0,0,0,.911.188v.455H156.82v-.455a2.671,2.671,0,0,0,.429-.054,1.223,1.223,0,0,0,.375-.134,1.711,1.711,0,0,0,.4-.348,2.054,2.054,0,0,0,.268-.482c.429-1.1.857-2.223,1.313-3.322.429-1.1.911-2.33,1.447-3.67h1.125c.723,1.9,1.313,3.4,1.714,4.5.429,1.1.777,2.009,1.071,2.732a2,2,0,0,0,.188.321,1.072,1.072,0,0,0,.321.268,1.549,1.549,0,0,0,.375.134,2.1,2.1,0,0,0,.375.054v.455Zm-4.179-3.4-1.152-3.054-1.152,3.054Z" transform="translate(-51.36 -35.568)" fill="#231815"/>
          <path id="Path_39" data-name="Path 39" d="M169.322,44.457a4.809,4.809,0,0,1-1.661-.295,3.706,3.706,0,0,1-1.339-.857,4.01,4.01,0,0,1-.884-1.366,5.171,5.171,0,0,1,0-3.589,4.433,4.433,0,0,1,.911-1.447,4.253,4.253,0,0,1,1.393-.938,4.641,4.641,0,0,1,1.714-.321,4.105,4.105,0,0,1,1.205.161,4.251,4.251,0,0,1,.911.375l.348-.321h.482l.054,3.054h-.509a4.954,4.954,0,0,0-1.018-2.036,1.913,1.913,0,0,0-1.447-.643,1.746,1.746,0,0,0-1.607.991,5.469,5.469,0,0,0-.563,2.732,6.452,6.452,0,0,0,.188,1.714,3.72,3.72,0,0,0,.482,1.125,2.306,2.306,0,0,0,.777.67,2.342,2.342,0,0,0,.991.214,2.424,2.424,0,0,0,1.42-.455,4.261,4.261,0,0,0,1.125-1.366l.482.321a4.578,4.578,0,0,1-.563.938,3.553,3.553,0,0,1-.723.7,3.841,3.841,0,0,1-.991.509A4.308,4.308,0,0,1,169.322,44.457Z" transform="translate(-49.718 -35.59)" fill="#231815"/>
          <path id="Path_40" data-name="Path 40" d="M180.48,37.961h-.455a3.01,3.01,0,0,0-.563-.964,1.806,1.806,0,0,0-.777-.589,1.924,1.924,0,0,0-.455-.054H176.6v3.214h.8a1.781,1.781,0,0,0,.563-.08,1.21,1.21,0,0,0,.455-.295,1.787,1.787,0,0,0,.268-.482,4.025,4.025,0,0,0,.161-.589h.455v3.509h-.455a4.237,4.237,0,0,0-.161-.616,1.438,1.438,0,0,0-.268-.509,1.122,1.122,0,0,0-.429-.295,1.841,1.841,0,0,0-.589-.08h-.8v2.411a3.157,3.157,0,0,0,.054.589.623.623,0,0,0,.188.348.581.581,0,0,0,.375.134,4.565,4.565,0,0,0,.67.027h.482c.188,0,.348-.027.482-.027.161-.027.295-.054.455-.08a.607.607,0,0,0,.295-.161,4.838,4.838,0,0,0,.616-.884c.214-.4.375-.7.455-.884h.4l-.161,2.6h-7.474v-.455a3.67,3.67,0,0,0,.429-.054,2.1,2.1,0,0,0,.375-.08.539.539,0,0,0,.295-.241.778.778,0,0,0,.08-.375V37.1a1.188,1.188,0,0,0-.054-.348.553.553,0,0,0-.295-.241,3.5,3.5,0,0,0-.4-.134,2.569,2.569,0,0,1-.4-.08v-.455h7.072v2.116Z" transform="translate(-48.071 -35.551)" fill="#231815"/>
          <path id="Path_41" data-name="Path 41" d="M196.586,44.207h-4.313v-.455a3.42,3.42,0,0,0,.455-.054,1.639,1.639,0,0,0,.375-.08.539.539,0,0,0,.295-.241.9.9,0,0,0,.08-.4V36.707l-2.732,7.366h-.7c-.027-.134-.107-.375-.241-.777-.134-.375-.241-.7-.321-.938L187.479,36.6v5.09a6.068,6.068,0,0,0,.08,1.125,1.129,1.129,0,0,0,.295.563,1.584,1.584,0,0,0,.482.241,5,5,0,0,0,.509.134v.455h-3.4v-.455a2.022,2.022,0,0,0,.455-.08,1.6,1.6,0,0,0,.536-.214.816.816,0,0,0,.295-.563,6.063,6.063,0,0,0,.08-1.125V37.618a2.021,2.021,0,0,0-.08-.616,1.06,1.06,0,0,0-.268-.4,1.256,1.256,0,0,0-.455-.241l-.482-.08v-.455h3.7l1.955,5.518,1.661-4.473a5.83,5.83,0,0,0,.161-.589,2.3,2.3,0,0,0,.08-.455h3.536v.455a2.1,2.1,0,0,0-.375.054,1.537,1.537,0,0,0-.375.107.539.539,0,0,0-.295.241.855.855,0,0,0-.08.375v5.92a.67.67,0,0,0,.08.348.459.459,0,0,0,.295.241,1.662,1.662,0,0,0,.375.107,2.787,2.787,0,0,0,.4.054v.482Z" transform="translate(-45.695 -35.555)" fill="#231815"/>
          <path id="Path_42" data-name="Path 42" d="M205.668,36.305a2.2,2.2,0,0,0-.482.08,1.27,1.27,0,0,0-.509.214.858.858,0,0,0-.295.536,6.19,6.19,0,0,0-.08,1.152v3.107a2.846,2.846,0,0,1-.884,2.2,3.25,3.25,0,0,1-2.357.83,3.894,3.894,0,0,1-2.625-.8,2.832,2.832,0,0,1-.938-2.25V37.082a.671.671,0,0,0-.08-.348.725.725,0,0,0-.295-.268,2.911,2.911,0,0,0-.375-.134,2.229,2.229,0,0,0-.348-.054v-.455h4.179v.455a2.1,2.1,0,0,0-.375.054,1.973,1.973,0,0,0-.375.107.539.539,0,0,0-.295.241.856.856,0,0,0-.08.375v4.206a2.689,2.689,0,0,0,.536,1.822,1.982,1.982,0,0,0,1.527.563,2.056,2.056,0,0,0,1.554-.616,2.677,2.677,0,0,0,.563-1.848V38.341a3.94,3.94,0,0,0-.107-1.125.941.941,0,0,0-.295-.536,1.808,1.808,0,0,0-.509-.241,5,5,0,0,0-.509-.134v-.482h3.456Z" transform="translate(-43.526 -35.555)" fill="#231815"/>
          <path id="Path_43" data-name="Path 43" d="M220.1,37.961h-.455a3.009,3.009,0,0,0-.563-.964,1.806,1.806,0,0,0-.777-.589,1.924,1.924,0,0,0-.455-.054H216.22v3.214h.8a1.781,1.781,0,0,0,.563-.08,1.21,1.21,0,0,0,.455-.295,1.787,1.787,0,0,0,.268-.482,4.028,4.028,0,0,0,.161-.589h.455v3.509h-.455a4.241,4.241,0,0,0-.161-.616,1.437,1.437,0,0,0-.268-.509,1.122,1.122,0,0,0-.429-.295,1.841,1.841,0,0,0-.589-.08h-.8v2.411a3.159,3.159,0,0,0,.054.589.623.623,0,0,0,.188.348.581.581,0,0,0,.375.134,4.564,4.564,0,0,0,.67.027h.482c.188,0,.348-.027.482-.027.161-.027.295-.054.455-.08a.608.608,0,0,0,.295-.161,4.841,4.841,0,0,0,.616-.884c.214-.4.375-.7.455-.884h.4l-.161,2.6h-7.474v-.455a3.668,3.668,0,0,0,.429-.054,2.1,2.1,0,0,0,.375-.08.539.539,0,0,0,.295-.241.778.778,0,0,0,.08-.375V37.1a1.189,1.189,0,0,0-.054-.348.553.553,0,0,0-.295-.241,3.506,3.506,0,0,0-.4-.134,2.569,2.569,0,0,1-.4-.08v-.455h7.072v2.116Z" transform="translate(-40.229 -35.551)" fill="#231815"/>
          <path id="Path_44" data-name="Path 44" d="M230,36.305a2.2,2.2,0,0,0-.482.08,1.27,1.27,0,0,0-.509.214.858.858,0,0,0-.295.536,6.2,6.2,0,0,0-.08,1.152v3.107a2.846,2.846,0,0,1-.884,2.2,3.25,3.25,0,0,1-2.357.83,3.894,3.894,0,0,1-2.625-.8,2.832,2.832,0,0,1-.938-2.25V37.082a.67.67,0,0,0-.08-.348.725.725,0,0,0-.295-.268,2.911,2.911,0,0,0-.375-.134,2.228,2.228,0,0,0-.348-.054v-.455h4.179v.455a2.1,2.1,0,0,0-.375.054,1.973,1.973,0,0,0-.375.107.539.539,0,0,0-.295.241.856.856,0,0,0-.08.375v4.206a2.689,2.689,0,0,0,.536,1.822,1.982,1.982,0,0,0,1.527.563,2.016,2.016,0,0,0,1.554-.616,2.677,2.677,0,0,0,.563-1.848V38.341a3.941,3.941,0,0,0-.107-1.125,1.125,1.125,0,0,0-.295-.536,1.807,1.807,0,0,0-.509-.241,5,5,0,0,0-.509-.134v-.482H230Z" transform="translate(-38.711 -35.555)" fill="#231815"/>
          <path id="Path_45" data-name="Path 45" d="M240.821,44.207h-4.313v-.455a2.983,2.983,0,0,0,.455-.054,1.639,1.639,0,0,0,.375-.08.539.539,0,0,0,.295-.241.9.9,0,0,0,.08-.4V36.707l-2.732,7.366h-.7c-.027-.134-.107-.375-.241-.777-.134-.375-.241-.7-.321-.938L231.714,36.6v5.09a6.061,6.061,0,0,0,.08,1.125,1.129,1.129,0,0,0,.295.563,1.493,1.493,0,0,0,.509.241,5,5,0,0,0,.509.134v.455h-3.456v-.455a2.022,2.022,0,0,0,.455-.08,1.6,1.6,0,0,0,.536-.214.816.816,0,0,0,.295-.563,6.066,6.066,0,0,0,.08-1.125V37.618a2.021,2.021,0,0,0-.08-.616,1.06,1.06,0,0,0-.268-.4,1.256,1.256,0,0,0-.455-.241l-.482-.08v-.455h3.7l1.955,5.518,1.661-4.473a5.834,5.834,0,0,0,.161-.589,2.3,2.3,0,0,0,.08-.455h3.536v.455a2.1,2.1,0,0,0-.375.054,1.535,1.535,0,0,0-.375.107.539.539,0,0,0-.295.241.856.856,0,0,0-.08.375v5.92a.67.67,0,0,0,.08.348.459.459,0,0,0,.295.241,1.661,1.661,0,0,0,.375.107,2.784,2.784,0,0,0,.4.054v.482Z" transform="translate(-36.945 -35.555)" fill="#231815"/>
          <path id="Path_46" data-name="Path 46" d="M209.122,44.466a4.553,4.553,0,0,1-1.366-.188,4.442,4.442,0,0,1-1.071-.455l-.375.4h-.482l-.08-3.027h.482a8.653,8.653,0,0,0,.4.911,4.035,4.035,0,0,0,.589.857,2.558,2.558,0,0,0,.777.643,2.011,2.011,0,0,0,.991.241,1.612,1.612,0,0,0,1.179-.4,1.333,1.333,0,0,0,.4-.991,1.114,1.114,0,0,0-.348-.83,3.543,3.543,0,0,0-1.072-.589c-.321-.107-.589-.214-.857-.295s-.509-.188-.75-.268a2.433,2.433,0,0,1-1.205-.964,2.558,2.558,0,0,1-.4-1.393,2.284,2.284,0,0,1,.214-.938,2.394,2.394,0,0,1,.589-.8,3.478,3.478,0,0,1,.938-.563,3.759,3.759,0,0,1,1.259-.214,3.711,3.711,0,0,1,1.232.188,5.043,5.043,0,0,1,.911.4l.348-.348h.482l.027,2.839h-.482a8.97,8.97,0,0,0-.4-.938,5.291,5.291,0,0,0-.482-.8,2.023,2.023,0,0,0-.643-.536,1.663,1.663,0,0,0-.83-.214,1.4,1.4,0,0,0-.991.348,1.12,1.12,0,0,0-.375.884,1.037,1.037,0,0,0,.348.83,2.681,2.681,0,0,0,1.045.563c.268.107.563.188.857.295s.536.188.777.295a2.758,2.758,0,0,1,1.232.911,2.438,2.438,0,0,1,.429,1.446,2.3,2.3,0,0,1-.241,1.045,2.579,2.579,0,0,1-.643.857,3.258,3.258,0,0,1-1.045.563A3.189,3.189,0,0,1,209.122,44.466Z" transform="translate(-41.676 -35.599)" fill="#231815"/>
        </g>
      </g>
      <g id="Group_16" data-name="Group 16" transform="translate(1.66 1.66)">
        <path id="Path_47" data-name="Path 47" d="M61.519,30.122A28.288,28.288,0,1,1,33.23,1.834,28.287,28.287,0,0,1,61.519,30.122Z" transform="translate(-4.942 -1.834)" fill="#7d0000"/>
        <g id="Group_15" data-name="Group 15" transform="translate(10.298 10.298)">
          <path id="Path_48" data-name="Path 48" d="M22.342,10.935h-8.3v8.325h8.3Zm-2.758,5.541H16.8V13.693h2.758v2.783Z" transform="translate(-14.043 -10.935)" fill="#fff"/>
          <path id="Path_49" data-name="Path 49" d="M38.506,10.935v8.325h8.3V10.935Zm5.541,5.541H41.29V13.693h2.758Z" transform="translate(-10.825 -10.935)" fill="#fff"/>
          <path id="Path_50" data-name="Path 50" d="M38.506,43.72h8.3v-8.3h-8.3Zm2.783-5.541h2.758v2.758H41.29Z" transform="translate(-10.825 -7.714)" fill="#fff"/>
          <path id="Path_51" data-name="Path 51" d="M14.043,43.72h8.3v-8.3h-8.3ZM16.8,38.178h2.758v2.758H16.8Z" transform="translate(-14.043 -7.714)" fill="#fff"/>
          <path id="Path_52" data-name="Path 52" d="M34.894,44.182H32.136V13.693h2.758v5.541h2.783v-8.3H23.837v8.3H26.6V13.693h2.758v30.49H26.6V38.641H23.837v8.3H37.678v-8.3H34.894Z" transform="translate(-12.755 -10.935)" fill="#fff"/>
          <path id="Path_53" data-name="Path 53" d="M27.883,20.729H14.043v8.3h8.3V26.27H16.8V23.487h8.325v8.325H14.043V34.57H27.883Z" transform="translate(-14.043 -9.646)" fill="#fff"/>
          <path id="Path_54" data-name="Path 54" d="M39.15,26.27v2.758h8.325v-8.3H33.609V34.57H47.475V31.812H36.392V23.487h8.3V26.27Z" transform="translate(-11.469 -9.646)" fill="#fff"/>
        </g>
      </g>
    </g>
  </g>
</svg>
